<?xml version="1.0" encoding="UTF-8"?>
<!DOCTYPE svg PUBLIC "-//W3C//DTD SVG 1.1//EN" "http://www.w3.org/Graphics/SVG/1.1/DTD/svg11.dtd">
<!-- Creator: CorelDRAW X7 -->
<svg xmlns="http://www.w3.org/2000/svg" xml:space="preserve" width="130.048mm" height="68.58mm" version="1.1" style="shape-rendering:geometricPrecision; text-rendering:geometricPrecision; image-rendering:optimizeQuality; fill-rule:evenodd; clip-rule:evenodd"
viewBox="0 0 13005 6858"
 xmlns:xlink="http://www.w3.org/1999/xlink">
 <defs>
  <style type="text/css">
   <![CDATA[
    .fil0 {fill:none}
    .fil1 {fill:white}
   ]]>
  </style>
 </defs>
 <g id="Layer_x0020_1">
  <metadata id="CorelCorpID_0Corel-Layer"/>
  <rect class="fil0" width="13005" height="6858"/>
  <g id="_2063243519792">
   <path class="fil1" d="M6575 2208c-30,-89 -247,-322 -247,-322 0,0 59,111 37,178 -18,56 -96,79 -101,135 16,-2 32,-4 48,-5 36,-2 72,-3 109,-2 53,2 105,7 154,16z"/>
   <path class="fil1" d="M7078 2768c101,-95 246,-110 507,-31 0,0 -226,70 -200,632 12,264 -165,318 -369,300 115,-131 186,-303 186,-491 0,-152 -46,-293 -124,-410z"/>
   <path class="fil1" d="M5798 2843c-104,-186 -248,-244 -589,-141 0,0 225,71 200,632 -14,302 219,329 458,289 -93,-124 -149,-278 -149,-445 0,-121 29,-234 80,-335z"/>
   <path class="fil1" d="M6322 4794c508,-348 578,-885 588,-1026 -78,59 -167,103 -264,128 -58,18 -121,28 -186,28 -65,0 -128,-10 -187,-28 -100,-26 -191,-72 -270,-134 -6,75 5,272 246,410 303,174 73,622 73,622z"/>
   <path class="fil1" d="M6460 2548c348,0 630,282 630,630 0,348 -282,630 -630,630 -348,0 -630,-282 -630,-630 0,-348 282,-630 630,-630zm126 392c159,0 287,128 287,286 0,159 -128,287 -287,287 -158,0 -286,-128 -286,-287 0,-158 128,-286 286,-286z"/>
   <path class="fil1" d="M6427 2281c348,11 630,192 630,405 0,15 -2,30 -5,45 -135,-179 -350,-295 -592,-295 -263,0 -494,137 -625,343 -25,-42 -38,-87 -38,-133 0,-190 225,-340 521,-362 35,-3 72,-4 109,-3z"/>
  </g>
 </g>
</svg>
